<svg id="Layer_1" data-name="Layer 1" xmlns="http://www.w3.org/2000/svg" viewBox="0 0 19 18"><defs><style>.cls-1{fill:#991782;}</style></defs><title>like</title><path class="cls-1" d="M44.46,25.59h.14c1,0,2.09,0,3.13,0A2.29,2.29,0,0,1,50,27.24a2.49,2.49,0,0,1-.5,2.27.17.17,0,0,0,0,.18,2.59,2.59,0,0,1,0,1.82,5.05,5.05,0,0,1-.28.51.35.35,0,0,0,0,.14,2.49,2.49,0,0,1-.6,2.34.27.27,0,0,0,0,.14A3.22,3.22,0,0,1,48.25,36a2.39,2.39,0,0,1-1.58,1.47,4.11,4.11,0,0,1-1.21.17H44.11a9.84,9.84,0,0,1-2-.22,24.57,24.57,0,0,1-2.93-.85c-.48-.16-1-.29-1.47-.42-.15,0-.31,0-.44-.09a.73.73,0,0,1-.51-.71V27.85a.74.74,0,0,1,.72-.77.69.69,0,0,0,.4-.22,12.46,12.46,0,0,0,.88-.9c.53-.62,1-1.26,1.55-1.88.14-.18.31-.33.45-.51a2.1,2.1,0,0,0,.32-.46,4.29,4.29,0,0,0,.41-1.27c.06-.28.11-.56.18-.84a2.87,2.87,0,0,1,.56-1.1.84.84,0,0,1,.7-.31,3.64,3.64,0,0,1,1.26.26,1.93,1.93,0,0,1,1.18,1.45,4.57,4.57,0,0,1-.19,2.83c-.13.3-.29.58-.44.88S44.55,25.38,44.46,25.59Z" transform="translate(-31.04 -19.59)"/><path class="cls-1" d="M31,31.58V27.85a.75.75,0,0,1,.63-.76h3.5a.76.76,0,0,1,.82.81v7.38a.8.8,0,0,1-.83.82c-1.09,0-2.19,0-3.29,0a.77.77,0,0,1-.83-.83Zm2.28,1.51a.75.75,0,1,0,.77.74A.76.76,0,0,0,33.32,33.09Z" transform="translate(-31.04 -19.59)"/></svg>