<svg id="Layer_1" data-name="Layer 1" xmlns="http://www.w3.org/2000/svg" viewBox="0 0 19.09 18.05"><defs><style>.cls-1{fill:#fedf5c;}</style></defs><title>like-animation</title><path class="cls-1" d="M13.42,6h3.27A2.3,2.3,0,0,1,19,7.65a2.49,2.49,0,0,1-.5,2.27.19.19,0,0,0,0,.18,2.59,2.59,0,0,1,0,1.82,4.16,4.16,0,0,1-.28.51.33.33,0,0,0,0,.14,2.48,2.48,0,0,1-.6,2.34.33.33,0,0,0,0,.14,3.21,3.21,0,0,1-.37,1.36,2.39,2.39,0,0,1-1.58,1.47,4.11,4.11,0,0,1-1.21.17H13.07a9.65,9.65,0,0,1-2-.22A25.12,25.12,0,0,1,8.14,17c-.48-.16-1-.29-1.47-.42a.75.75,0,0,1-.44-.09.73.73,0,0,1-.51-.71V8.26a.74.74,0,0,1,.71-.77h0a.69.69,0,0,0,.4-.22,12.46,12.46,0,0,0,.88-.9c.53-.62,1-1.26,1.55-1.88.14-.18.31-.33.45-.51A2.1,2.1,0,0,0,10,3.52a4.39,4.39,0,0,0,.41-1.27c.06-.28.11-.56.18-.84a2.87,2.87,0,0,1,.56-1.1.83.83,0,0,1,.7-.31,3.64,3.64,0,0,1,1.26.26,1.94,1.94,0,0,1,1.18,1.45,4.57,4.57,0,0,1-.19,2.83c-.13.3-.29.58-.44.88S13.51,5.79,13.42,6Z" transform="translate(0.04 0)"/><path class="cls-1" d="M0,12V8.26A.75.75,0,0,1,.59,7.5h3.5a.76.76,0,0,1,.82.7v7.49a.8.8,0,0,1-.78.82H.79a.77.77,0,0,1-.83-.7V12ZM2.24,13.5a.75.75,0,0,0,0,1.5A.75.75,0,0,0,3,14.24a.76.76,0,0,0-.73-.74Z" transform="translate(0.04 0)"/></svg>