<svg id="Layer_1" data-name="Layer 1" xmlns="http://www.w3.org/2000/svg" viewBox="0 0 60.02 60.01"><defs><style>.cls-1{fill:#7d7e7e;}</style></defs><title>no</title><path class="cls-1" d="M42.35,73h-2.7l-1.24-.11a29.08,29.08,0,0,1-8.43-2,29.81,29.81,0,0,1-18.8-24.67c-.07-.64-.12-1.28-.18-1.91v-2.7c0-.12,0-.23.05-.35a28.66,28.66,0,0,1,1.18-6.89,29.36,29.36,0,0,1,14-17.57,29.54,29.54,0,0,1,20.52-3.28,28.78,28.78,0,0,1,13.94,6.78,30.11,30.11,0,0,1,9.51,29.44,29.82,29.82,0,0,1-26,23ZM27,33.69,36.33,43,27,52.29l4.7,4.7,9.33-9.32,9.23,9.26,4.7-4.7-9.29-9.29,9.25-9.26L50.3,29,41,38.34,31.71,29Z" transform="translate(-11 -12.99)"/></svg>