<svg id="Layer_1" data-name="Layer 1" xmlns="http://www.w3.org/2000/svg" viewBox="0 0 17.97 18.01"><defs><style>.cls-1{fill:#fff;}</style></defs><title>profielwhite</title><path class="cls-1" d="M9,18H1a2.94,2.94,0,0,1-.42,0A.62.62,0,0,1,0,17.31a.5.5,0,0,1,0-.12A14.82,14.82,0,0,1,.55,15.1a9.47,9.47,0,0,1,4-4.92.38.38,0,0,1,.54,0v0A5.58,5.58,0,0,0,8.38,11.8a5.73,5.73,0,0,0,4.4-1.44h.07c.38-.35.38-.36.8-.08a9.7,9.7,0,0,1,4.27,6.52,4.6,4.6,0,0,1,.06.52.63.63,0,0,1-.5.68A3.69,3.69,0,0,1,17,18Z" transform="translate(-0.01 0)"/><path class="cls-1" d="M9,0a5.31,5.31,0,0,1,5.14,5.45A5.33,5.33,0,0,1,9,10.87,5.32,5.32,0,0,1,3.85,5.43,5.31,5.31,0,0,1,9,0Z" transform="translate(-0.01 0)"/></svg>