<svg id="Layer_1" data-name="Layer 1" xmlns="http://www.w3.org/2000/svg" viewBox="0 0 18 18"><defs><style>.cls-1{fill:#991782;}</style></defs><title>profiel</title><path class="cls-1" d="M37.15,35.64h-8a2,2,0,0,1-.42,0,.63.63,0,0,1-.54-.81,14.82,14.82,0,0,1,.51-2.09,9.46,9.46,0,0,1,4-4.92.38.38,0,0,1,.55.06,5.55,5.55,0,0,0,3.28,1.56A5.73,5.73,0,0,0,40.93,28L41,28c.38-.35.38-.36.8-.08a9.67,9.67,0,0,1,4.27,6.52,4.6,4.6,0,0,1,.06.52.63.63,0,0,1-.5.68,2.5,2.5,0,0,1-.47,0Z" transform="translate(-28.15 -17.64)"/><path class="cls-1" d="M37.15,17.64a5.3,5.3,0,0,1,5.14,5.45,5.33,5.33,0,0,1-5.15,5.42A5.32,5.32,0,0,1,32,23.07,5.31,5.31,0,0,1,37.15,17.64Z" transform="translate(-28.15 -17.64)"/></svg>