<?xml version="1.0" encoding="UTF-8"?>
<svg width="71px" height="68px" viewBox="0 0 71 68" version="1.1" xmlns="http://www.w3.org/2000/svg" xmlns:xlink="http://www.w3.org/1999/xlink">
    <!-- Generator: Sketch 52.5 (67469) - http://www.bohemiancoding.com/sketch -->
    <title>Mobile Portrait</title>
    <desc>Created with Sketch.</desc>
    <defs>
        <polygon id="path-1" points="0.0141935484 66 65.9091613 66 65.9091613 0.0950967742 0.0141935484 0.0950967742"></polygon>
    </defs>
    <g id="Mobile-Portrait" stroke="none" stroke-width="1" fill="none" fill-rule="evenodd">
        <g id="sitelogo" transform="translate(3.000000, 1.000000)">
            <g id="Clipped">
                <mask id="mask-2" fill="white">
                    <use xlink:href="#path-1"></use>
                </mask>
                <g id="path-1"></g>
                <path d="M65.9091613,33.0475484 C65.9091613,51.2448602 51.1544946,66 32.953871,66 C14.7541935,66 0,51.2448602 0,33.0475484 C0,14.8497634 14.7541935,0.0950967742 32.953871,0.0950967742 C51.1544946,0.0950967742 65.9091613,14.8497634 65.9091613,33.0475484" id="Path" fill="#991782" mask="url(#mask-2)"></path>
            </g>
            <path d="M53.9518891,44.2201397 L54.4943619,44.2201397 L54.4943619,45.8199462 C54.9387973,44.8170138 55.8794707,44.0885758 57,44.1313824 L57,44.7301914 L56.9421459,44.7301914 C55.6342566,44.7301914 54.4943619,45.7142598 54.4943619,47.5530095 L54.4943619,49.8677106 L53.9518891,49.8677106 L53.9518891,44.2201397 Z M51.5343635,42.7451253 L52.2109414,42.7451253 L52.2109414,42 L51.5343635,42 L51.5343635,42.7451253 Z M51.5989954,49.8677106 L52.1443729,49.8677106 L52.1443729,44.2201397 L51.5989954,44.2201397 L51.5989954,49.8677106 Z M45,48.2299344 L45,48.2018803 C45,47.0320747 46.0082101,46.3665165 47.4722329,46.3665165 C48.2587094,46.3665165 48.8028766,46.4695426 49.3455914,46.609571 L49.3455914,46.3665165 C49.3455914,45.2312948 48.6462591,44.6399831 47.4816735,44.6399831 C46.7929922,44.6399831 46.2284913,44.8262039 45.7087729,45.0936848 L45.5068888,44.6206354 C46.1275493,44.3323559 46.738285,44.1313824 47.515805,44.1313824 C48.2814637,44.1313824 48.8902628,44.3388857 49.2988724,44.7521993 C49.6767394,45.1270595 49.8774131,45.6463013 49.8774131,46.3483781 L49.8774131,49.8677106 L49.3455914,49.8677106 L49.3455914,48.9293509 C48.9534424,49.4679404 48.2587094,50 47.181268,50 C46.1275493,50 45,49.4053025 45,48.2299344 Z M49.3547899,47.7556758 L49.3547899,47.1097071 C48.8784015,46.9887844 48.2480584,46.858188 47.4376173,46.858188 C46.2422891,46.858188 45.5744256,47.3842015 45.5744256,48.1757611 L45.5744256,48.1970434 C45.5744256,49.0130294 46.3492829,49.4880135 47.2156416,49.4880135 C48.36885,49.4880135 49.3547899,48.7852112 49.3547899,47.7556758 Z" id="Shape" fill="#FFFFFF" fill-rule="nonzero"></path>
            <path d="M15.3674834,33.9488264 C15.3674834,33.9488264 14.9974918,33.9146673 14.9050528,33.8941718 C14.813793,33.8739203 14.6017965,33.8031622 14.5963728,33.7058087 C14.5961369,33.7048327 14.5954295,33.7043447 14.5954295,33.7038567 L14.5954295,33.7028808 L14.5954295,33.7021488 C14.5954295,33.7014168 14.5961369,33.7006848 14.5963728,33.7001968 C14.6017965,33.6028433 14.813793,33.5318412 14.9050528,33.5118337 C14.9974918,33.4913382 15.3674834,33.4571791 15.3674834,33.4571791 L23.2132399,33.0968004 L24.9617982,27.1492103 C24.9629773,27.1399385 24.965807,27.1270068 24.9705233,27.1155391 C24.9896242,27.042341 25,26.966459 25,26.8859411 C25,26.424793 24.6415632,26.0517267 24.196347,26.0517267 L20.2834909,26.0517267 C19.9208095,26.0517267 19.6170815,26.2984043 19.5142667,26.6385315 C19.5069565,26.6634188 19.5010612,26.6909901 19.4979956,26.7163655 L18.1368791,32.0871545 L16.579094,26.6885502 L16.5243853,26.5048229 C16.4027054,26.2105666 16.1176067,26 15.7877034,26 L12.2224366,26 C11.8644715,26 11.5590928,26.2444817 11.4591078,26.5853409 L9.89212597,32.0283521 L8.58713315,26.7163655 C8.57982293,26.6909901 8.57062619,26.6634188 8.56473085,26.6385315 C8.4638026,26.2984043 8.15677321,26.0517267 7.79739319,26.0517267 L3.80483204,26.0517267 C3.35985165,26.0517267 3,26.424793 3,26.8859411 C3,26.9742668 3.01061161,27.0555167 3.03725856,27.1289588 L6.87654083,40.3848919 L6.89092546,40.4402785 C6.99987137,40.7643021 7.30218449,41 7.65449011,41 L11.4329325,41 C11.7937274,41 12.0962763,40.7545423 12.199091,40.4156351 L13.9903316,34.6405485 L15.7171951,40.3726922 C15.7188458,40.3848919 15.7228546,40.3948957 15.7242695,40.4031914 L15.7436062,40.4534541 C15.7466718,40.4644339 15.7509165,40.4761456 15.7542178,40.4890772 C15.8756619,40.7879695 16.1650053,41 16.4970309,41 L20.3028276,41 C20.6416919,41 20.9385813,40.7765018 21.051536,40.4644339 L21.0880871,40.3478049 C21.0880871,40.3453649 21.0880871,40.3378011 21.0897378,40.3346292 L22.8774412,34.2455227 L15.3674834,33.9488264" id="Path" fill="#FFFFFF"></path>
            <path d="M30.7701537,32.7445732 C30.9846183,31.862232 31.6179336,31.171694 32.4216486,30.9467972 C32.4558692,30.5601611 32.6647086,28.2300906 32.7254149,28.0797709 C32.7917466,27.9157012 32.9436298,27.9126715 32.9654278,27.9126715 L32.9874603,27.9126715 L33.0092583,27.9126715 C33.0310564,27.9126715 33.1831739,27.9157012 33.2492712,28.0797709 C33.3099776,28.2300906 33.5190513,30.5601611 33.5532719,30.9467972 C34.3567526,31.171694 34.9900678,31.862232 35.2047669,32.7445732 L41,33 C40.9985937,32.9561859 40.9974217,32.9282195 40.9974217,32.9282195 C40.7630341,29.1301438 37.520985,26 33.0242591,26 C28.4951877,26 25.2245433,29.1844453 25,32.9990678 L30.7701537,32.7445732" id="Path" fill="#FFFFFF"></path>
            <path d="M35.0891255,34.2368115 C34.7248581,35.1621031 33.9240815,35.8061811 32.9922346,35.8061811 C32.0603877,35.8061811 31.2596111,35.1621031 30.8953437,34.2368115 L25,34.00074 C25.390858,37.8735948 28.5873754,41 32.9781157,41 C37.3737977,41 40.578551,37.8499137 41,34 L35.0891255,34.2368115" id="Path" fill="#FFFFFF"></path>
            <path d="M62.1973075,26.0517267 L58.2826488,26.0517267 C57.92139,26.0517267 57.614603,26.2984043 57.5132053,26.6353596 C57.506131,26.6634188 57.4985851,26.6909901 57.4962271,26.7163655 L56.1386769,32.0871545 L54.5780955,26.6909901 L54.5205582,26.5048229 C54.3993526,26.2056867 54.1185045,26 53.785307,26 L50.2248328,26 C49.8638098,26 49.5584377,26.2444817 49.4537386,26.5853409 L47.8917424,32.0351839 L46.5851269,26.7163655 C46.5806465,26.6909901 46.5705068,26.6634188 46.5643758,26.6353596 C46.4634497,26.2984043 46.156191,26.0517267 45.7965829,26.0517267 L41.8052864,26.0517267 C41.3593723,26.0517267 41,26.424793 41,26.8859411 C41,26.9718269 41.0132053,27.0555167 41.0365503,27.1357906 L42.7659707,33.0980204 L50.5853842,33.4571791 C50.5853842,33.4571791 50.9553679,33.4913382 51.047569,33.5118337 C51.1390628,33.5318412 51.3510547,33.6028433 51.3564783,33.7001968 C51.3564783,33.7006848 51.3574215,33.7014168 51.3574215,33.7021488 L51.3574215,33.7028808 L51.3574215,33.7038567 C51.3574215,33.7043447 51.3564783,33.7048327 51.3564783,33.7058087 C51.3510547,33.8031622 51.1390628,33.8739203 51.047569,33.8941718 C50.9553679,33.9146673 50.5853842,33.9488264 50.5853842,33.9488264 L43.1017621,34.2447907 L44.87858,40.382452 L44.8922569,40.4351546 C45.0019079,40.7643021 45.3002058,41 45.6527397,41 L49.4303936,41 C49.7916524,41 50.0972603,40.7545423 50.1996013,40.4156351 L51.9884454,34.6405485 L53.7148002,40.3726922 C53.7190448,40.3848919 53.7237609,40.3907478 53.7284771,40.4031914 L53.7440405,40.4534541 C53.7456911,40.4668738 53.7487566,40.4761456 53.7534728,40.4890772 C53.8796304,40.7879695 54.1614217,41 54.4979206,41 L58.3010418,41 C58.6441434,41 58.9358386,40.7765018 59.0520923,40.4644339 L59.0876994,40.3478049 C59.0876994,40.3453649 59.0876994,40.3378011 59.0907649,40.3346292 L62.9610916,27.1492103 C62.9641571,27.1399385 62.9651003,27.1270068 62.9681658,27.1155391 C62.9882096,27.042341 63,26.966459 63,26.8859411 C63,26.424793 62.6408635,26.0517267 62.1973075,26.0517267" id="Path" fill="#FFFFFF"></path>
        </g>
    </g>
</svg>