<svg id="Layer_1" data-name="Layer 1" xmlns="http://www.w3.org/2000/svg" viewBox="0 0 60 60.02"><defs><style>.cls-1{fill:#88afaf;}</style></defs><title>yes</title><path class="cls-1" d="M41.92,68.59h-2.7L38,68.48a29.87,29.87,0,0,1-27.36-27.7A29.65,29.65,0,0,1,11.8,30,29.26,29.26,0,0,1,25.64,12.54a29.4,29.4,0,0,1,20.7-3.39A29.09,29.09,0,0,1,63.83,19.59,29.28,29.28,0,0,1,70.4,35.36c.06.63.11,1.26.17,1.88v2.7a2.6,2.6,0,0,0,0,.39,27.79,27.79,0,0,1-.71,5.05A29.49,29.49,0,0,1,57,63.71,29.09,29.09,0,0,1,43.8,68.42Zm-6-16L59.19,29,54.52,24.3l-19,19L26.26,34l-4.63,4.63Z" transform="translate(-10.57 -8.57)"/></svg>