<svg id="Layer_1" data-name="Layer 1" xmlns="http://www.w3.org/2000/svg" viewBox="0 0 842.69 620.13"><defs><style>.cls-1{font-size:153.88px;font-family:OpenSans, Open Sans;}.cls-1,.cls-2{fill:#231f20;}</style></defs><title>klmperbevenn</title><text x="0.1" y="-0.39"/><text class="cls-1" transform="translate(241.41 167.88)">K</text><text class="cls-1" transform="translate(342.99 205.67)">L</text><text class="cls-1" transform="translate(440.16 185.73)">U</text><text class="cls-1" transform="translate(214.73 292.56)">M</text><text class="cls-1" transform="translate(344.73 331.65)">P</text><text class="cls-1" transform="translate(432.16 317.2)">E</text><text class="cls-1" transform="translate(516.32 337.05)">R</text><text class="cls-1" transform="translate(219.09 434.34)">B</text><text class="cls-1" transform="translate(313.02 460.01)">E</text><text class="cls-1" transform="translate(419.93 440.78)">V</text><text class="cls-1" transform="translate(257.67 577.43)">E</text><text class="cls-1" transform="translate(373.59 578.43)">N</text><rect class="cls-2" x="357.97" y="14.34" width="12.88" height="91.9"/><rect class="cls-2" x="538.52" y="156.02" width="11.27" height="114.82" transform="translate(330.82 757.19) rotate(-90)"/><rect class="cls-2" x="334.21" y="9.91" width="11.58" height="67.55" transform="translate(116.08 -216.18) rotate(41.87)"/><rect class="cls-2" x="342.89" y="316.02" width="14.86" height="46.57" transform="translate(342.62 -148.72) rotate(45)"/><rect class="cls-2" x="233.87" y="336.99" width="13.38" height="187.8"/><rect class="cls-2" x="310.13" y="436.43" width="13.38" height="166.1" transform="translate(-202.56 835.91) rotate(-90)"/><rect class="cls-2" x="529.05" y="405.04" width="13.38" height="141.22" transform="translate(60.19 1011) rotate(-90)"/><rect class="cls-2" x="429.85" y="74.57" width="13.38" height="133.5" transform="translate(76.86 -143.84) rotate(20.42)"/><rect class="cls-2" x="512.03" y="308.23" width="13" height="45.41" transform="translate(187.69 849.08) rotate(-90)"/><rect class="cls-2" x="753.81" y="393.55" width="13.38" height="164.19" transform="translate(284.95 1235.76) rotate(-90)"/><rect class="cls-2" x="601.45" y="322.56" width="13.38" height="16.38" transform="translate(277.49 938.5) rotate(-90)"/><rect class="cls-2" x="557.2" y="53.5" width="13.38" height="59.34" transform="translate(480.82 646.67) rotate(-90)"/><rect class="cls-2" x="388.61" y="544.26" width="11.76" height="51.4" transform="translate(789.08 1139.54) rotate(180)"/><rect class="cls-2" x="218.63" y="271.44" width="13.38" height="31.65" transform="translate(-61.85 512.19) rotate(-90)"/><rect class="cls-2" x="21.85" y="258.63" width="13.38" height="57.27" transform="translate(-258.63 315.41) rotate(-90)"/><rect class="cls-2" x="256.01" y="0.39" width="13.39" height="91.72" transform="translate(525.51 92.11) rotate(180)"/><rect class="cls-2" x="340.24" y="265.89" width="13.38" height="40.74" transform="translate(60.76 632.8) rotate(-90)"/><rect class="cls-2" x="590.3" y="76.48" width="11.27" height="142.58" transform="translate(1191.95 295.15) rotate(180)"/><rect class="cls-2" x="419.07" y="318.64" width="12.03" height="168.24" transform="translate(22.42 827.46) rotate(-90)"/><rect class="cls-2" x="786.47" y="381.57" width="11.08" height="41.43" transform="translate(389.82 1193.91) rotate(-90)"/><rect class="cls-2" x="801.64" y="331.75" width="11.08" height="75.65" transform="translate(1614.46 738.76) rotate(180)"/><rect class="cls-2" x="773.65" y="298.36" width="13.38" height="64.77" transform="translate(449.69 1110.7) rotate(-90)"/><rect class="cls-2" x="385.38" y="449.81" width="14.44" height="32.67" transform="translate(-188.82 283.37) rotate(-32.48)"/><rect class="cls-2" x="123.67" y="-122.57" width="13.38" height="259.31" transform="translate(123.37 137.05) rotate(-90)"/><rect class="cls-2" x="495.82" y="307.35" width="13.38" height="30.2" transform="translate(1005.13 644.51) rotate(180)"/></svg>