<?xml version="1.0" encoding="utf-8"?>
<!-- Generator: Adobe Illustrator 23.0.0, SVG Export Plug-In . SVG Version: 6.00 Build 0)  -->
<svg version="1.1" id="Layer_1" xmlns="http://www.w3.org/2000/svg" xmlns:xlink="http://www.w3.org/1999/xlink" x="0px" y="0px"
	 viewBox="0 0 375 812" style="enable-background:new 0 0 375 812;" xml:space="preserve">
<style type="text/css">
	.st0{font-family:'OpenSans';}
	.st1{font-size:103.5944px;}
</style>
<g>
	<text transform="matrix(1 0 0 1 159.2505 94.9199)" class="st0 st1">k</text>
	<text transform="matrix(1 0 0 1 88.2993 284.7871)" class="st0 st1">M</text>
	<text transform="matrix(1 0 0 1 88.2993 405.5498)" class="st0 st1">P</text>
	<text transform="matrix(1 0 0 1 156.1909 411.21)" class="st0 st1">E</text>
	<rect y="14.42" width="176.54" height="8.99"/>
	<text transform="matrix(1 0 0 1 270.8359 407.2129)" class="st0 st1">R</text>
	<text transform="matrix(1 0 0 1 270.7822 487.9229)" class="st0 st1">B</text>
	<text transform="matrix(1 0 0 1 109.8901 548.543)" class="st0 st1">E</text>
	<text transform="matrix(1 0 0 1 119.9976 668.5947)" class="st0 st1">V</text>
	<text transform="matrix(1 0 0 1 247.7725 668.457)" class="st0 st1">E</text>
	<text transform="matrix(1 0 0 1 159.2505 797.9258)" class="st0 st1">N</text>
	<text transform="matrix(1 0 0 1 220.874 116.5703)" class="st0 st1">L</text>
	<text transform="matrix(1 0 0 1 254.1836 185.8564)" class="st0 st1">U</text>
	<rect x="201.19" y="39.41" width="38.64" height="7.66"/>
	<rect x="165.88" y="210.95" width="191.53" height="7.66"/>
	<rect x="137.24" y="626" width="134.91" height="7.66"/>
	<rect x="152.89" y="506.08" width="136.57" height="7.66"/>
	
		<rect x="230.17" y="454.12" transform="matrix(6.123234e-17 -1 1 6.123234e-17 -172.9809 743.5831)" width="110.26" height="8.33"/>
	<rect x="98.6" y="565.37" transform="matrix(6.123234e-17 -1 1 6.123234e-17 -445.1245 693.951)" width="51.63" height="8.33"/>
	<rect x="262.65" y="689.45" transform="matrix(6.123234e-17 -1 1 6.123234e-17 -398.6569 988.5789)" width="64.62" height="8.33"/>
	<rect x="219.18" y="724.26" width="79.94" height="8.33"/>
	<rect x="219.18" y="789.55" width="155.56" height="8.33"/>
	<rect x="311.45" y="109.03" width="45.97" height="7.66"/>
	<rect x="298.63" y="159.82" transform="matrix(6.123234e-17 -1 1 6.123234e-17 189.2666 517.2408)" width="109.26" height="8.33"/>
	<rect x="71.45" y="300.39" transform="matrix(6.123234e-17 -1 1 6.123234e-17 -201.7941 406.9844)" width="62.29" height="7.99"/>
	<rect x="106.59" y="369.18" width="195.53" height="7.66"/>
</g>
</svg>
